<mxfile host="app.diagrams.net" modified="2023-03-24T18:38:41.995Z" agent="Mozilla/5.0 (Macintosh; Intel Mac OS X 10.15; rv:109.0) Gecko/20100101 Firefox/111.0" etag="DBM9oafxN5sLfPKNdOIP" compressed="false" version="21.1.1" type="device">
  <diagram name="Page-1" id="2YBvvXClWsGukQMizWep">
    <mxGraphModel dx="954" dy="614" grid="1" gridSize="10" guides="1" tooltips="1" connect="1" arrows="1" fold="1" page="1" pageScale="1" pageWidth="2500" pageHeight="2500" math="0" shadow="0">
      <root>
        <mxCell id="0" />
        <mxCell id="1" parent="0" />
        <mxCell id="aM9ryv3xv72pqoxQDRHE-5" value="Repository" style="shape=umlLifeline;perimeter=lifelinePerimeter;whiteSpace=wrap;html=1;container=0;dropTarget=0;collapsible=0;recursiveResize=0;outlineConnect=0;portConstraint=eastwest;newEdgeStyle={&quot;edgeStyle&quot;:&quot;elbowEdgeStyle&quot;,&quot;elbow&quot;:&quot;vertical&quot;,&quot;curved&quot;:0,&quot;rounded&quot;:0};" parent="1" vertex="1">
          <mxGeometry x="810" y="40" width="130" height="430" as="geometry" />
        </mxCell>
        <mxCell id="aM9ryv3xv72pqoxQDRHE-6" value="" style="html=1;points=[];perimeter=orthogonalPerimeter;outlineConnect=0;targetShapes=umlLifeline;portConstraint=eastwest;newEdgeStyle={&quot;edgeStyle&quot;:&quot;elbowEdgeStyle&quot;,&quot;elbow&quot;:&quot;vertical&quot;,&quot;curved&quot;:0,&quot;rounded&quot;:0};strokeColor=#3399FF;" parent="aM9ryv3xv72pqoxQDRHE-5" vertex="1">
          <mxGeometry x="60" y="90" width="10" height="120" as="geometry" />
        </mxCell>
        <mxCell id="fCjNDRdymDhb6TnAWpX7-8" value="Student" style="shape=umlActor;verticalLabelPosition=bottom;verticalAlign=top;html=1;outlineConnect=0;strokeColor=#000000;fontSize=13;" parent="1" vertex="1">
          <mxGeometry x="50" y="40" width="30" height="60" as="geometry" />
        </mxCell>
        <mxCell id="fCjNDRdymDhb6TnAWpX7-12" value="" style="html=1;points=[];perimeter=orthogonalPerimeter;outlineConnect=0;targetShapes=umlLifeline;portConstraint=eastwest;newEdgeStyle={&quot;edgeStyle&quot;:&quot;elbowEdgeStyle&quot;,&quot;elbow&quot;:&quot;vertical&quot;,&quot;curved&quot;:0,&quot;rounded&quot;:0};strokeColor=#3399FF;" parent="1" vertex="1">
          <mxGeometry x="60" y="130" width="10" height="320" as="geometry" />
        </mxCell>
        <mxCell id="fCjNDRdymDhb6TnAWpX7-27" value="Collection Add Interface" style="shape=umlLifeline;perimeter=lifelinePerimeter;whiteSpace=wrap;html=1;container=0;dropTarget=0;collapsible=0;recursiveResize=0;outlineConnect=0;portConstraint=eastwest;newEdgeStyle={&quot;edgeStyle&quot;:&quot;elbowEdgeStyle&quot;,&quot;elbow&quot;:&quot;vertical&quot;,&quot;curved&quot;:0,&quot;rounded&quot;:0};" parent="1" vertex="1">
          <mxGeometry x="230" y="40" width="120" height="430" as="geometry" />
        </mxCell>
        <mxCell id="fCjNDRdymDhb6TnAWpX7-28" value="" style="html=1;points=[];perimeter=orthogonalPerimeter;outlineConnect=0;targetShapes=umlLifeline;portConstraint=eastwest;newEdgeStyle={&quot;edgeStyle&quot;:&quot;elbowEdgeStyle&quot;,&quot;elbow&quot;:&quot;vertical&quot;,&quot;curved&quot;:0,&quot;rounded&quot;:0};strokeColor=#3399FF;" parent="fCjNDRdymDhb6TnAWpX7-27" vertex="1">
          <mxGeometry x="55" y="90" width="10" height="320" as="geometry" />
        </mxCell>
        <mxCell id="fCjNDRdymDhb6TnAWpX7-33" value="" style="endArrow=none;dashed=1;html=1;rounded=0;fontSize=13;" parent="1" target="fCjNDRdymDhb6TnAWpX7-12" edge="1">
          <mxGeometry width="50" height="50" relative="1" as="geometry">
            <mxPoint x="65" y="470" as="sourcePoint" />
            <mxPoint x="65" y="660" as="targetPoint" />
            <Array as="points" />
          </mxGeometry>
        </mxCell>
        <mxCell id="8WBUeJ8e2ZMxS5DKSKpC-83" value="Library API" style="shape=umlLifeline;perimeter=lifelinePerimeter;whiteSpace=wrap;html=1;container=0;dropTarget=0;collapsible=0;recursiveResize=0;outlineConnect=0;portConstraint=eastwest;newEdgeStyle={&quot;edgeStyle&quot;:&quot;elbowEdgeStyle&quot;,&quot;elbow&quot;:&quot;vertical&quot;,&quot;curved&quot;:0,&quot;rounded&quot;:0};" parent="1" vertex="1">
          <mxGeometry x="550" y="40" width="130" height="430" as="geometry" />
        </mxCell>
        <mxCell id="8WBUeJ8e2ZMxS5DKSKpC-84" value="" style="html=1;points=[];perimeter=orthogonalPerimeter;outlineConnect=0;targetShapes=umlLifeline;portConstraint=eastwest;newEdgeStyle={&quot;edgeStyle&quot;:&quot;elbowEdgeStyle&quot;,&quot;elbow&quot;:&quot;vertical&quot;,&quot;curved&quot;:0,&quot;rounded&quot;:0};strokeColor=#3399FF;" parent="8WBUeJ8e2ZMxS5DKSKpC-83" vertex="1">
          <mxGeometry x="60" y="90" width="10" height="320" as="geometry" />
        </mxCell>
        <mxCell id="UOv02gEyeNIiNMxLk5ma-9" value="" style="endArrow=classic;html=1;rounded=0;" parent="1" source="fCjNDRdymDhb6TnAWpX7-12" target="fCjNDRdymDhb6TnAWpX7-28" edge="1">
          <mxGeometry width="50" height="50" relative="1" as="geometry">
            <mxPoint x="70" y="270" as="sourcePoint" />
            <mxPoint x="285" y="270" as="targetPoint" />
            <Array as="points">
              <mxPoint x="130" y="160" />
            </Array>
          </mxGeometry>
        </mxCell>
        <mxCell id="UOv02gEyeNIiNMxLk5ma-11" value="removeBook(bookID)" style="text;html=1;strokeColor=none;fillColor=none;align=center;verticalAlign=middle;whiteSpace=wrap;rounded=0;fontSize=13;" parent="1" vertex="1">
          <mxGeometry x="70" y="140" width="150" height="20" as="geometry" />
        </mxCell>
        <mxCell id="UOv02gEyeNIiNMxLk5ma-12" value="" style="endArrow=classic;html=1;rounded=0;" parent="1" source="fCjNDRdymDhb6TnAWpX7-28" target="8WBUeJ8e2ZMxS5DKSKpC-84" edge="1">
          <mxGeometry width="50" height="50" relative="1" as="geometry">
            <mxPoint x="295" y="290" as="sourcePoint" />
            <mxPoint x="460" y="290" as="targetPoint" />
            <Array as="points">
              <mxPoint x="320" y="180" />
              <mxPoint x="350" y="180" />
              <mxPoint x="380" y="180" />
              <mxPoint x="460" y="180" />
              <mxPoint x="530" y="180" />
            </Array>
          </mxGeometry>
        </mxCell>
        <mxCell id="UOv02gEyeNIiNMxLk5ma-13" value="removeBookCollection(bookID, collectionID)" style="text;html=1;strokeColor=none;fillColor=none;align=center;verticalAlign=middle;whiteSpace=wrap;rounded=0;fontSize=13;" parent="1" vertex="1">
          <mxGeometry x="300" y="160" width="300" height="20" as="geometry" />
        </mxCell>
        <mxCell id="UOv02gEyeNIiNMxLk5ma-14" value="" style="endArrow=classic;html=1;rounded=0;" parent="1" source="8WBUeJ8e2ZMxS5DKSKpC-84" target="aM9ryv3xv72pqoxQDRHE-6" edge="1">
          <mxGeometry width="50" height="50" relative="1" as="geometry">
            <mxPoint x="470" y="310" as="sourcePoint" />
            <mxPoint x="560" y="320" as="targetPoint" />
            <Array as="points">
              <mxPoint x="640" y="200" />
              <mxPoint x="730" y="200" />
              <mxPoint x="810" y="200" />
            </Array>
          </mxGeometry>
        </mxCell>
        <mxCell id="UOv02gEyeNIiNMxLk5ma-15" value="updateCollection(bookID, collectionID)" style="text;html=1;strokeColor=none;fillColor=none;align=center;verticalAlign=middle;whiteSpace=wrap;rounded=0;fontSize=13;" parent="1" vertex="1">
          <mxGeometry x="620" y="180" width="240" height="20" as="geometry" />
        </mxCell>
        <mxCell id="UOv02gEyeNIiNMxLk5ma-21" value="" style="endArrow=classic;html=1;rounded=0;dashed=1;" parent="1" source="aM9ryv3xv72pqoxQDRHE-6" target="8WBUeJ8e2ZMxS5DKSKpC-84" edge="1">
          <mxGeometry width="50" height="50" relative="1" as="geometry">
            <mxPoint x="680" y="340" as="sourcePoint" />
            <mxPoint x="470" y="340" as="targetPoint" />
            <Array as="points">
              <mxPoint x="640" y="230" />
            </Array>
          </mxGeometry>
        </mxCell>
        <mxCell id="UOv02gEyeNIiNMxLk5ma-22" value="Result" style="text;html=1;strokeColor=none;fillColor=none;align=center;verticalAlign=middle;whiteSpace=wrap;rounded=0;fontSize=13;" parent="1" vertex="1">
          <mxGeometry x="660" y="210" width="70" height="20" as="geometry" />
        </mxCell>
        <mxCell id="tPXLSFXYp5JXvSkgjBu1-5" value="alt" style="shape=umlFrame;whiteSpace=wrap;html=1;pointerEvents=0;strokeColor=#000000;fontSize=13;width=40;height=20;" parent="1" vertex="1">
          <mxGeometry x="10" y="250" width="630" height="90" as="geometry" />
        </mxCell>
        <mxCell id="tPXLSFXYp5JXvSkgjBu1-6" value="confirmUpdate()" style="text;html=1;strokeColor=none;fillColor=none;align=center;verticalAlign=middle;whiteSpace=wrap;rounded=0;fontSize=13;" parent="1" vertex="1">
          <mxGeometry x="457.5" y="280" width="135" height="20" as="geometry" />
        </mxCell>
        <mxCell id="tPXLSFXYp5JXvSkgjBu1-7" value="" style="endArrow=classic;html=1;rounded=0;fontSize=13;" parent="1" edge="1">
          <mxGeometry width="50" height="50" relative="1" as="geometry">
            <mxPoint x="610" y="300" as="sourcePoint" />
            <mxPoint x="295" y="300" as="targetPoint" />
            <Array as="points">
              <mxPoint x="460" y="300" />
            </Array>
          </mxGeometry>
        </mxCell>
        <mxCell id="tPXLSFXYp5JXvSkgjBu1-8" value="" style="endArrow=classic;html=1;rounded=0;fontSize=13;dashed=1;" parent="1" edge="1">
          <mxGeometry width="50" height="50" relative="1" as="geometry">
            <mxPoint x="285" y="320" as="sourcePoint" />
            <mxPoint x="70" y="320" as="targetPoint" />
            <Array as="points">
              <mxPoint x="231" y="320" />
              <mxPoint x="150" y="320" />
            </Array>
          </mxGeometry>
        </mxCell>
        <mxCell id="tPXLSFXYp5JXvSkgjBu1-9" value="Display Collection" style="text;html=1;strokeColor=none;fillColor=none;align=center;verticalAlign=middle;whiteSpace=wrap;rounded=0;fontSize=13;" parent="1" vertex="1">
          <mxGeometry x="135" y="300" width="106.25" height="20" as="geometry" />
        </mxCell>
        <mxCell id="tPXLSFXYp5JXvSkgjBu1-10" value="[Result OK]" style="text;html=1;strokeColor=none;fillColor=none;align=center;verticalAlign=middle;whiteSpace=wrap;rounded=0;fontSize=13;" parent="1" vertex="1">
          <mxGeometry x="15.000000000000004" y="270" width="80" height="20" as="geometry" />
        </mxCell>
        <mxCell id="tPXLSFXYp5JXvSkgjBu1-11" value="cancelUpdate()" style="text;html=1;strokeColor=none;fillColor=none;align=center;verticalAlign=middle;whiteSpace=wrap;rounded=0;fontSize=13;" parent="1" vertex="1">
          <mxGeometry x="470" y="360" width="110" height="20" as="geometry" />
        </mxCell>
        <mxCell id="tPXLSFXYp5JXvSkgjBu1-12" value="" style="endArrow=classic;html=1;rounded=0;fontSize=13;" parent="1" edge="1">
          <mxGeometry width="50" height="50" relative="1" as="geometry">
            <mxPoint x="610" y="380" as="sourcePoint" />
            <mxPoint x="295" y="380" as="targetPoint" />
            <Array as="points">
              <mxPoint x="500" y="380" />
              <mxPoint x="420" y="380" />
            </Array>
          </mxGeometry>
        </mxCell>
        <mxCell id="tPXLSFXYp5JXvSkgjBu1-13" value="" style="endArrow=classic;html=1;rounded=0;fontSize=13;dashed=1;" parent="1" edge="1">
          <mxGeometry width="50" height="50" relative="1" as="geometry">
            <mxPoint x="285" y="410" as="sourcePoint" />
            <mxPoint x="70" y="410" as="targetPoint" />
            <Array as="points">
              <mxPoint x="239" y="410" />
              <mxPoint x="149" y="410" />
            </Array>
          </mxGeometry>
        </mxCell>
        <mxCell id="tPXLSFXYp5JXvSkgjBu1-14" value="Display Failure" style="text;html=1;strokeColor=none;fillColor=none;align=center;verticalAlign=middle;whiteSpace=wrap;rounded=0;fontSize=13;" parent="1" vertex="1">
          <mxGeometry x="110.32" y="390" width="155.62" height="20" as="geometry" />
        </mxCell>
        <mxCell id="tPXLSFXYp5JXvSkgjBu1-15" value="[Result FAIL]" style="text;html=1;strokeColor=none;fillColor=none;align=center;verticalAlign=middle;whiteSpace=wrap;rounded=0;fontSize=13;" parent="1" vertex="1">
          <mxGeometry x="15.000000000000004" y="340" width="92.19" height="20" as="geometry" />
        </mxCell>
        <mxCell id="tPXLSFXYp5JXvSkgjBu1-16" value="" style="rounded=0;whiteSpace=wrap;html=1;fillColor=none;" parent="1" vertex="1">
          <mxGeometry x="10" y="340" width="630" height="90" as="geometry" />
        </mxCell>
      </root>
    </mxGraphModel>
  </diagram>
</mxfile>
